<svg xmlns="http://www.w3.org/2000/svg" viewBox="0 8.859999656677246 170.5800018310547 36.98999786376953" data-asc="0.9052734375" width="170.5800018310547" height="36.98999786376953"><defs/><g fill="#000000"><g transform="translate(0, 0)"><path d="M0 45.26L0 9.47L24.15 9.47L24.15 13.70L4.74 13.70L4.74 24.78L21.53 24.78L21.53 29.00L4.74 29.00L4.74 45.26L0 45.26ZM46.73 45.26L46.73 41.46Q43.70 45.85 38.50 45.85Q36.21 45.85 34.22 44.97Q32.23 44.09 31.26 42.76Q30.30 41.43 29.91 39.50Q29.64 38.21 29.64 35.40L29.64 19.34L34.03 19.34L34.03 33.72Q34.03 37.16 34.30 38.35Q34.72 40.09 36.06 41.08Q37.40 42.07 39.38 42.07Q41.36 42.07 43.09 41.05Q44.82 40.04 45.54 38.29Q46.26 36.55 46.26 33.23L46.26 19.34L50.66 19.34L50.66 45.26L46.73 45.26ZM74.46 35.77L78.78 36.33Q78.08 40.80 75.16 43.32Q72.24 45.85 67.99 45.85Q62.67 45.85 59.44 42.37Q56.20 38.89 56.20 32.40Q56.20 28.20 57.59 25.05Q58.98 21.90 61.83 20.32Q64.67 18.75 68.02 18.75Q72.24 18.75 74.93 20.89Q77.61 23.02 78.37 26.95L74.10 27.61Q73.49 25 71.94 23.68Q70.39 22.36 68.19 22.36Q64.87 22.36 62.79 24.74Q60.72 27.12 60.72 32.28Q60.72 37.50 62.72 39.87Q64.72 42.24 67.94 42.24Q70.53 42.24 72.27 40.65Q74.00 39.06 74.46 35.77ZM82.57 45.26L82.57 9.47L86.96 9.47L86.96 29.88L97.36 19.34L103.05 19.34L93.14 28.96L104.05 45.26L98.63 45.26L90.06 32.01L86.96 34.99L86.96 45.26L82.57 45.26ZM108.59 45.26L108.59 22.75L104.71 22.75L104.71 19.34L108.59 19.34L108.59 16.58Q108.59 13.96 109.06 12.70Q109.69 10.99 111.29 9.92Q112.89 8.86 115.77 8.86Q117.63 8.86 119.87 9.30L119.21 13.13Q117.85 12.89 116.63 12.89Q114.62 12.89 113.79 13.75Q112.96 14.60 112.96 16.94L112.96 19.34L118.02 19.34L118.02 22.75L112.96 22.75L112.96 45.26L108.59 45.26ZM119.80 32.30Q119.80 25.10 123.80 21.63Q127.15 18.75 131.96 18.75Q137.30 18.75 140.70 22.25Q144.09 25.76 144.09 31.93Q144.09 36.94 142.59 39.81Q141.09 42.68 138.22 44.26Q135.35 45.85 131.96 45.85Q126.51 45.85 123.16 42.36Q119.80 38.87 119.80 32.30M124.32 32.30Q124.32 37.28 126.49 39.76Q128.66 42.24 131.96 42.24Q135.23 42.24 137.40 39.75Q139.58 37.26 139.58 32.15Q139.58 27.34 137.39 24.87Q135.21 22.39 131.96 22.39Q128.66 22.39 126.49 24.85Q124.32 27.32 124.32 32.30ZM146.31 45.26L155.79 31.79L147.02 19.34L152.51 19.34L156.49 25.42Q157.62 27.15 158.30 28.32Q159.38 26.71 160.28 25.46L164.65 19.34L169.90 19.34L160.94 31.54L170.58 45.26L165.19 45.26L159.86 37.21L158.45 35.03L151.64 45.26L146.31 45.26Z"/></g><g transform="translate(0, 60.595703125)"><path d=""/></g></g></svg>